<svg width="185" height="35" viewBox="0 0 185 35" fill="none" xmlns="http://www.w3.org/2000/svg">
<path d="M15.3034 25.3685C11.8254 25.3603 8.63735 22.9606 7.70917 19.2831C6.26212 13.5976 10.1602 8.35585 15.1373 8.35585C20.4811 8.35585 24.0695 16.2641 24.0695 16.2641C24.0695 16.2641 21.2683 25.3853 15.3034 25.3685ZM32.2326 16.7752L32.7928 15.6791L32.8858 15.5036V15.4952L40.4767 0.616577H32.5817L27.9417 8.94215C24.8722 3.90862 19.4438 0.188187 13.9402 0.656364C6.68842 1.28338 0.842071 7.81256 0.381991 15.7969C-0.16094 25.2597 6.64691 33.1265 15.1373 33.1265C17.1189 33.1265 19.0172 32.6921 20.7492 31.9061C22.079 31.3126 23.3164 30.4928 24.429 29.5147C24.4799 29.4641 24.5215 29.4314 24.5709 29.3819C24.823 29.1473 25.1231 28.83 25.45 28.4528C25.7919 28.0518 26.1526 27.5923 26.5198 27.1243C26.587 27.0492 26.6459 26.9653 26.713 26.882C26.8219 26.7398 26.9222 26.6051 27.0225 26.4641C27.3322 26.0544 27.6242 25.6363 27.8828 25.2597C28.1591 24.859 28.4018 24.4907 28.5772 24.2063L33.2283 33.0917H40.7134L32.2326 16.7752Z" fill="#13D6D1"/>
<path d="M32.885 15.4954V15.5037L32.7933 15.6794L32.233 16.7747L27.9422 8.94122L32.885 15.4954Z" fill="#06B2A5"/>
<path d="M28.5772 24.2064C28.4018 24.4907 28.1591 24.859 27.8832 25.2598C27.6242 25.6363 27.3321 26.0544 27.0225 26.4641L24.0695 16.2648L28.5772 24.2064Z" fill="#06B2A5"/>
<path d="M45.7339 33.2299C45.0409 33.2299 44.4629 32.997 43.9999 32.5312C43.5369 32.0653 43.3055 31.4923 43.3055 30.8119C43.3055 30.1254 43.5369 29.5508 43.9999 29.088C44.4629 28.6252 45.0409 28.3937 45.7339 28.3937C46.1815 28.3937 46.5893 28.5011 46.9573 28.7156C47.3252 28.9301 47.6013 29.2181 47.7852 29.5799L46.9297 30.0763C46.8255 29.8556 46.6675 29.6825 46.456 29.5568C46.2445 29.4313 46.0007 29.3683 45.7247 29.3683C45.32 29.3683 44.9812 29.5064 44.7083 29.7821C44.4353 30.058 44.2989 30.4012 44.2989 30.8119C44.2989 31.2226 44.4353 31.5658 44.7083 31.8415C44.9812 32.1174 45.32 32.2553 45.7247 32.2553C45.9945 32.2553 46.2383 32.191 46.456 32.0622C46.6737 31.9336 46.8377 31.762 46.9482 31.5473L47.8035 32.0346C47.6073 32.4024 47.3252 32.6935 46.9573 32.908C46.5893 33.1226 46.1815 33.2299 45.7339 33.2299ZM52.2471 28.5134V29.4695H50.7478V33.1104H49.7543V29.4695H48.2457V28.5134H52.2471ZM55.7801 28.3937C56.4117 28.3937 56.9514 28.6283 57.399 29.0971C57.8468 29.566 58.0705 30.1377 58.0705 30.8119C58.0705 31.4923 57.8468 32.0653 57.399 32.5312C56.9514 32.997 56.4117 33.2299 55.7801 33.2299C55.081 33.2299 54.5444 32.9725 54.1703 32.4576V34.9492H53.1768V28.5134H54.1703V29.1753C54.5444 28.6544 55.081 28.3937 55.7801 28.3937ZM54.5842 31.8645C54.8603 32.1435 55.2066 32.2829 55.6237 32.2829C56.0407 32.2829 56.3872 32.1435 56.6631 31.8645C56.9391 31.5857 57.077 31.2347 57.077 30.8119C57.077 30.3889 56.9391 30.0381 56.6631 29.7591C56.3872 29.4803 56.0407 29.3407 55.6237 29.3407C55.2066 29.3407 54.8603 29.4803 54.5842 29.7591C54.3084 30.0381 54.1703 30.3889 54.1703 30.8119C54.1703 31.2347 54.3084 31.5857 54.5842 31.8645ZM62.8728 28.5134H63.8662V33.1104H62.8728V32.4484C62.4986 32.9694 61.9622 33.2299 61.263 33.2299C60.6313 33.2299 60.0918 32.9955 59.644 32.5265C59.1965 32.0576 58.9726 31.4861 58.9726 30.8119C58.9726 30.1315 59.1965 29.5583 59.644 29.0926C60.0918 28.6268 60.6313 28.3937 61.263 28.3937C61.9622 28.3937 62.4986 28.6513 62.8728 29.1662V28.5134ZM60.38 31.8645C60.6558 32.1435 61.0024 32.2829 61.4194 32.2829C61.8364 32.2829 62.1828 32.1435 62.4588 31.8645C62.7348 31.5857 62.8728 31.2347 62.8728 30.8119C62.8728 30.3889 62.7348 30.0381 62.4588 29.7591C62.1828 29.4803 61.8364 29.3407 61.4194 29.3407C61.0024 29.3407 60.6558 29.4803 60.38 29.7591C60.104 30.0381 59.966 30.3889 59.966 30.8119C59.966 31.2347 60.104 31.5857 60.38 31.8645ZM69.3952 33.1104H68.2453L67.1047 31.5382L65.9548 33.1104H64.7958L66.5252 30.7474L64.8877 28.5134H66.0376L67.0954 29.966L68.1533 28.5134H69.3123L67.6751 30.7567L69.3952 33.1104ZM72.1646 33.2299C71.4899 33.2299 70.9166 32.997 70.4445 32.5312C69.9722 32.0653 69.7362 31.4923 69.7362 30.8119C69.7362 30.1315 69.9722 29.5583 70.4445 29.0926C70.9166 28.6268 71.4899 28.3937 72.1646 28.3937C72.8453 28.3937 73.4202 28.6268 73.8894 29.0926C74.3584 29.5583 74.5931 30.1315 74.5931 30.8119C74.5931 31.4923 74.3584 32.0653 73.8894 32.5312C73.4202 32.997 72.8453 33.2299 72.1646 33.2299ZM71.1436 31.8508C71.4194 32.1267 71.7598 32.2645 72.1646 32.2645C72.5693 32.2645 72.9097 32.1267 73.1857 31.8508C73.4616 31.5749 73.5996 31.2287 73.5996 30.8119C73.5996 30.3951 73.4616 30.0487 73.1857 29.773C72.9097 29.4971 72.5693 29.3592 72.1646 29.3592C71.7598 29.3592 71.4194 29.4971 71.1436 29.773C70.8675 30.0487 70.7296 30.3951 70.7296 30.8119C70.7296 31.2287 70.8675 31.5749 71.1436 31.8508ZM78.9353 30.7474C79.389 30.9559 79.616 31.3083 79.616 31.8048C79.616 32.191 79.4856 32.5051 79.225 32.7472C78.9645 32.9893 78.5919 33.1104 78.1074 33.1104H75.7525V28.5134H77.9235C78.3956 28.5134 78.762 28.6314 79.0226 28.8673C79.2834 29.1033 79.4136 29.4083 79.4136 29.7821C79.4136 30.2173 79.2542 30.5391 78.9353 30.7474ZM77.8499 29.3592H76.7V30.3798H77.8499C78.2546 30.3798 78.457 30.2082 78.457 29.8649C78.457 29.5278 78.2546 29.3592 77.8499 29.3592ZM78.0155 32.2462C78.4325 32.2462 78.6409 32.0653 78.6409 31.7037C78.6409 31.5444 78.5857 31.4202 78.4754 31.3313C78.3649 31.2424 78.2117 31.198 78.0155 31.198H76.7V32.2462H78.0155ZM84.3262 28.5134H85.3196V33.1104H84.3262V32.4484C83.9521 32.9694 83.4156 33.2299 82.7164 33.2299C82.0847 33.2299 81.5452 32.9955 81.0975 32.5265C80.6499 32.0576 80.426 31.4861 80.426 30.8119C80.426 30.1315 80.6499 29.5583 81.0975 29.0926C81.5452 28.6268 82.0847 28.3937 82.7164 28.3937C83.4156 28.3937 83.9521 28.6513 84.3262 29.1662V28.5134ZM81.8334 31.8645C82.1093 32.1435 82.4558 32.2829 82.8728 32.2829C83.2899 32.2829 83.6362 32.1435 83.9122 31.8645C84.1883 31.5857 84.3262 31.2347 84.3262 30.8119C84.3262 30.3889 84.1883 30.0381 83.9122 29.7591C83.6362 29.4803 83.2899 29.3407 82.8728 29.3407C82.4558 29.3407 82.1093 29.4803 81.8334 29.7591C81.5574 30.0381 81.4195 30.3889 81.4195 30.8119C81.4195 31.2347 81.5574 31.5857 81.8334 31.8645ZM90.2966 28.5134V33.1104H89.3217V31.5658H88.7696L87.6014 33.1104H86.4333L87.675 31.4738C87.3562 31.3697 87.1001 31.1857 86.9069 30.9221C86.7138 30.6586 86.6172 30.3644 86.6172 30.0396C86.6172 29.6166 86.769 29.2565 87.0725 28.9592C87.3761 28.6619 87.7671 28.5134 88.2454 28.5134H90.2966ZM88.3006 30.7107H89.3217V29.4143H88.3006C88.0982 29.4143 87.9295 29.4726 87.7947 29.589C87.6597 29.7054 87.5923 29.8649 87.5923 30.0671C87.5923 30.2632 87.6597 30.4196 87.7947 30.536C87.9295 30.6524 88.0982 30.7107 88.3006 30.7107ZM98.0794 33.1104H96.8926L95.0069 30.9866V33.1104H94.0135V28.5134H95.0069V30.5453L96.7916 28.5134H98.0058L95.982 30.7659L98.0794 33.1104ZM100.812 33.2299C100.137 33.2299 99.5639 32.997 99.0918 32.5312C98.6195 32.0653 98.3835 31.4923 98.3835 30.8119C98.3835 30.1315 98.6195 29.5583 99.0918 29.0926C99.5639 28.6268 100.137 28.3937 100.812 28.3937C101.493 28.3937 102.068 28.6268 102.537 29.0926C103.006 29.5583 103.24 30.1315 103.24 30.8119C103.24 31.4923 103.006 32.0653 102.537 32.5312C102.068 32.997 101.493 33.2299 100.812 33.2299ZM99.7909 31.8508C100.067 32.1267 100.407 32.2645 100.812 32.2645C101.217 32.2645 101.557 32.1267 101.833 31.8508C102.109 31.5749 102.247 31.2287 102.247 30.8119C102.247 30.3951 102.109 30.0487 101.833 29.773C101.557 29.4971 101.217 29.3592 100.812 29.3592C100.407 29.3592 100.067 29.4971 99.7909 29.773C99.5148 30.0487 99.3769 30.3951 99.3769 30.8119C99.3769 31.2287 99.5148 31.5749 99.7909 31.8508ZM109.091 28.5134V33.1104H108.125V30.0856L106.801 32.191H106.681L105.366 30.0947V33.1104H104.4V28.5134H105.412L106.745 30.6372L108.079 28.5134H109.091ZM114.592 28.5134V33.1104H113.599V29.4512H111.493V33.1104H110.499V28.5134H114.592ZM119.643 28.5134H120.637V33.1104H119.643V32.4484C119.269 32.9694 118.733 33.2299 118.033 33.2299C117.402 33.2299 116.862 32.9955 116.414 32.5265C115.967 32.0576 115.743 31.4861 115.743 30.8119C115.743 30.1315 115.967 29.5583 116.414 29.0926C116.862 28.6268 117.402 28.3937 118.033 28.3937C118.733 28.3937 119.269 28.6513 119.643 29.1662V28.5134ZM117.15 31.8645C117.426 32.1435 117.773 32.2829 118.19 32.2829C118.607 32.2829 118.953 32.1435 119.229 31.8645C119.505 31.5857 119.643 31.2347 119.643 30.8119C119.643 30.3889 119.505 30.0381 119.229 29.7591C118.953 29.4803 118.607 29.3407 118.19 29.3407C117.773 29.3407 117.426 29.4803 117.15 29.7591C116.874 30.0381 116.736 30.3889 116.736 30.8119C116.736 31.2347 116.874 31.5857 117.15 31.8645ZM125.154 28.5134H126.147V33.1104H125.154V31.2807H123.047V33.1104H122.054V28.5134H123.047V30.3429H125.154V28.5134ZM130.885 28.5134H131.648V33.1104H130.673V30.1867L128.319 33.1104H127.555V28.5134H128.53V31.4278L130.885 28.5134ZM136.616 28.5134V33.1104H135.641V31.5658H135.089L133.921 33.1104H132.753L133.995 31.4738C133.676 31.3697 133.42 31.1857 133.227 30.9221C133.033 30.6586 132.937 30.3644 132.937 30.0396C132.937 29.6166 133.089 29.2565 133.392 28.9592C133.696 28.6619 134.087 28.5134 134.565 28.5134H136.616ZM134.62 30.7107H135.641V29.4143H134.62C134.418 29.4143 134.249 29.4726 134.114 29.589C133.979 29.7054 133.912 29.8649 133.912 30.0671C133.912 30.2632 133.979 30.4196 134.114 30.536C134.249 30.6524 134.418 30.7107 134.62 30.7107Z" fill="#1D283A"/>
<path d="M121.317 6.69917C122.938 6.69917 124.276 7.25418 125.334 8.36541C126.39 9.47618 126.92 11.0118 126.92 12.9707V22.2701H123.097V13.4547C123.097 12.4453 122.83 11.6729 122.296 11.1375C121.763 10.6024 121.052 10.3346 120.162 10.3346C119.175 10.3346 118.383 10.6475 117.791 11.2739C117.198 11.9002 116.904 12.8393 116.904 14.0916V22.2701H113.08V7.1231H116.904V8.81954C117.83 7.40622 119.303 6.69917 121.317 6.69917ZM50.2693 14.097H55.9603L53.1141 5.43328L50.2693 14.097ZM86.3336 17.5781C87.104 18.3535 88.165 18.7578 89.3512 18.7578C90.5364 18.7578 91.5198 18.2691 92.2994 17.4938C93.079 16.7173 93.5423 15.7213 93.5423 14.5038C93.5423 13.286 93.079 12.2899 92.2994 11.5142C91.5198 10.7391 90.5364 10.237 89.3512 10.237C88.165 10.237 87.0386 10.699 86.2682 11.4741C85.4969 12.2498 85.0162 13.286 85.0162 14.5038C85.0162 15.7213 85.5625 16.8017 86.3336 17.5781ZM93.4714 7.14037H97.2938V22.2792H93.4714V20.1287C92.3245 21.5623 90.7138 22.2792 88.6402 22.2792C86.6638 22.2792 84.9699 21.5282 83.557 20.0262C82.1454 18.5236 81.4389 16.6826 81.4389 14.5038C81.4389 12.3239 82.1454 10.483 83.557 8.98131C84.9699 7.47947 86.6638 6.72801 88.6402 6.72801C90.7138 6.72801 92.3245 7.44524 93.4714 8.87737V7.14037ZM80.6123 4.39761C78.5181 4.23692 77.4716 5.09341 77.4716 6.97244V7.1231H80.6123V10.8799H77.4716V22.2701H73.648V10.8799H71.5146V7.1231H73.648V6.97244C73.648 4.83156 74.2305 3.20543 75.3965 2.09466C76.5616 0.984204 78.3006 0.499526 80.6123 0.640627V4.39761ZM64.9098 22.2701H68.7324V0.616577H64.9098V22.2701ZM58.6302 22.2812L57.234 18.0048H48.9653L47.5692 22.2752H43.1537L50.5653 0.616577H55.634L63.076 22.2812H58.6302ZM139.811 7.12341H144.018L138.388 22.2701H134.031L128.401 7.12341H132.61L136.196 17.7262L139.811 7.12341ZM148.583 12.8755H156.14C155.922 11.8459 155.474 11.0784 154.792 10.5734C154.11 10.0689 153.336 9.81621 152.466 9.81621C151.437 9.81621 150.589 10.0838 149.918 10.6182C149.244 11.1543 148.801 11.9056 148.583 12.8755ZM165.712 11.0098C165.712 11.4152 165.974 11.742 166.497 11.9947C167.022 12.2468 167.659 12.4692 168.41 12.6621C169.16 12.8532 169.911 13.0953 170.66 13.3884C171.413 13.681 172.05 14.1706 172.573 14.8571C173.096 15.5446 173.359 16.4028 173.359 17.4323C173.359 18.9879 172.789 20.1836 171.654 21.0225C170.518 21.8591 169.101 22.2792 167.402 22.2792C164.358 22.2792 162.285 21.0768 161.178 18.6746L164.496 16.765C164.931 18.0788 165.901 18.7344 167.402 18.7344C168.764 18.7344 169.446 18.3001 169.446 17.4323C169.446 17.0279 169.184 16.7005 168.662 16.4475C168.137 16.1955 167.5 15.9677 166.75 15.7653C165.998 15.5643 165.248 15.3111 164.496 15.0092C163.746 14.706 163.109 14.227 162.585 13.5695C162.062 12.9143 161.8 12.0902 161.8 11.1014C161.8 9.60679 162.338 8.43033 163.416 7.57215C164.492 6.71383 165.831 6.28405 167.43 6.28405C168.637 6.28405 169.733 6.56225 170.721 7.11709C171.708 7.67347 172.49 8.46456 173.062 9.49576L169.802 11.3128C169.328 10.2825 168.536 9.76839 167.43 9.76839C166.936 9.76839 166.528 9.87943 166.201 10.1021C165.876 10.3232 165.712 10.6269 165.712 11.0098ZM184.524 10.8799H181.176V17.1801C181.176 17.7061 181.304 18.0907 181.561 18.3325C181.818 18.5746 182.193 18.7105 182.687 18.7415C183.181 18.7716 183.793 18.7671 184.524 18.7258V22.2701C181.896 22.5731 180.045 22.3204 178.968 21.5128C177.89 20.7053 177.353 19.2618 177.353 17.1801V10.8799H174.775V7.1231H177.353V3.98804L181.176 3.98866L181.176 7.1231H184.524V10.8799ZM105.167 22.2701H109.256V2.79663H105.167V22.2701ZM148.642 15.9051C149.156 17.8041 150.55 18.7524 152.821 18.7524C154.283 18.7524 155.389 18.2479 156.14 17.2386L159.223 19.0561C157.76 21.2164 155.606 22.2968 152.761 22.2968C150.312 22.2968 148.347 21.5394 146.864 20.0245C145.383 18.5103 144.642 16.6012 144.642 14.2998C144.642 12.0171 145.373 10.1148 146.835 8.5884C148.296 7.06404 150.173 6.30255 152.466 6.30255C154.638 6.30255 156.432 7.0699 157.843 8.60473C159.257 10.1393 159.963 12.0387 159.963 14.2998C159.963 14.8049 159.914 15.3403 159.815 15.9051H148.642Z" fill="#1D283A"/>
</svg>
